<?xml version="1.0" standalone="no"?>
<!DOCTYPE svg PUBLIC "-//W3C//DTD SVG 20010904//EN"
 "http://www.w3.org/TR/2001/REC-SVG-20010904/DTD/svg10.dtd">
<svg version="1.0" xmlns="http://www.w3.org/2000/svg"
 width="1024.000000pt" height="1024.000000pt" viewBox="0 0 1024.000000 1024.000000"
 preserveAspectRatio="xMidYMid meet">
<metadata>
Created by potrace 1.14, written by Peter Selinger 2001-2017
</metadata>
<g transform="translate(0.000000,1024.000000) scale(0.100000,-0.100000)"
fill="#000000" stroke="none">
<path d="M8224 6551 c-2 -2 -4 -76 -4 -164 l0 -160 -22 21 c-42 38 -108 62
-178 62 -130 0 -203 -43 -259 -153 -31 -60 -35 -76 -35 -150 -1 -101 21 -169
73 -229 61 -68 119 -93 221 -93 90 0 129 13 180 61 l26 24 2 -38 c2 -20 7 -41
11 -45 4 -4 37 -7 72 -5 l64 3 3 436 2 436 -76 -1 c-41 0 -77 -3 -80 -5z
m-122 -381 c63 -18 118 -101 118 -180 0 -14 -11 -49 -25 -78 -21 -45 -32 -56
-71 -74 -56 -24 -122 -21 -163 9 -34 25 -71 98 -71 143 0 88 38 151 105 175
49 17 60 18 107 5z"/>
<path d="M3997 6493 c-7 -7 -10 -797 -3 -804 2 -2 41 -3 85 -1 l81 4 0 144 0
144 183 2 182 3 3 73 3 72 -186 0 -185 0 0 110 0 110 205 0 206 0 -3 73 -3 72
-281 3 c-154 1 -283 -1 -287 -5z"/>
<path d="M4820 6307 c-170 -48 -266 -227 -216 -401 44 -150 144 -220 316 -220
88 -1 101 2 161 31 36 18 73 41 82 51 16 17 14 21 -27 65 l-44 47 -58 -31
c-49 -26 -68 -30 -109 -27 -65 6 -123 34 -146 72 -35 57 -39 56 212 56 l232 0
-6 74 c-13 175 -119 283 -287 292 -36 2 -85 -2 -110 -9z m162 -133 c40 -19 66
-52 74 -94 l7 -30 -152 0 c-140 0 -151 1 -151 19 0 29 43 85 80 103 43 22 99
23 142 2z"/>
<path d="M5585 6311 c-43 -11 -75 -29 -112 -64 l-33 -31 0 47 0 47 -80 0 -80
0 0 -310 0 -310 70 -1 c39 -1 76 -2 83 -3 9 -1 13 46 17 189 4 170 7 193 25
217 29 39 86 68 134 68 l42 0 -3 77 c-3 84 -6 88 -63 74z"/>
<path d="M6003 6306 c-49 -16 -113 -54 -113 -67 0 -5 -4 -9 -10 -9 -5 0 -10
18 -10 40 l0 40 -80 0 -80 0 0 -309 c0 -171 3 -312 8 -314 4 -2 42 -2 85 1
l77 4 0 176 c0 154 2 181 20 216 24 50 47 66 108 72 34 4 57 0 82 -13 59 -30
64 -54 61 -265 l-2 -186 81 -4 c45 -2 84 -1 86 1 9 9 3 419 -7 461 -14 65 -51
114 -101 139 -57 27 -150 35 -205 17z"/>
<path d="M6592 6309 c-48 -8 -182 -62 -182 -72 0 -12 54 -107 60 -107 4 0 29
10 56 21 61 28 165 30 211 6 31 -16 63 -80 48 -95 -4 -4 -59 -7 -124 -7 -107
-1 -121 -3 -173 -28 -74 -37 -103 -81 -102 -157 2 -121 82 -190 219 -190 69 0
118 15 163 51 l27 21 5 -33 c6 -39 19 -44 96 -34 l54 6 0 213 c0 242 -9 292
-62 343 -18 18 -52 39 -74 47 -56 19 -158 27 -222 15z m188 -402 c0 -67 -52
-107 -140 -107 -41 0 -56 5 -75 25 -39 38 -30 86 20 113 11 6 59 12 108 12
l87 0 0 -43z"/>
<path d="M7353 6310 c-41 -9 -119 -56 -132 -78 -8 -13 -10 -6 -11 31 l0 47
-80 0 -80 0 0 -309 0 -309 78 -4 c42 -3 80 -3 85 -1 4 2 7 89 7 192 0 179 1
190 23 222 45 67 167 78 219 20 l28 -31 0 -200 c0 -109 3 -201 8 -203 4 -2 42
-2 85 1 l79 4 -4 232 c-3 210 -5 235 -25 278 -41 89 -163 136 -280 108z"/>
<path d="M8687 6310 c-90 -23 -176 -90 -211 -164 -87 -184 4 -398 193 -452
122 -36 290 7 361 94 62 75 87 203 59 307 -23 87 -100 169 -190 200 -54 19
-163 27 -212 15z m153 -152 c57 -30 82 -65 90 -130 17 -132 -58 -219 -177
-205 -57 6 -92 31 -120 87 -48 92 -17 205 67 248 24 12 56 22 70 22 14 0 46
-10 70 -22z"/>
<path d="M1335 5799 c-165 -199 -300 -365 -300 -369 0 -5 140 -154 311 -332
315 -328 554 -579 816 -858 80 -85 161 -170 180 -187 l34 -33 455 478 c251
262 553 579 673 704 l218 228 -162 192 c-89 106 -228 271 -307 366 l-145 172
-736 0 -737 0 -300 -361z"/>
<path d="M6780 5370 l0 -90 -40 0 -40 0 0 -74 0 -75 38 -3 37 -3 5 -265 5
-265 30 -54 c34 -62 73 -95 145 -122 96 -36 251 -17 321 40 l22 18 -38 74
c-22 41 -40 75 -41 77 -1 2 -25 -4 -53 -14 -64 -20 -113 -13 -141 23 -19 24
-20 39 -20 259 l0 234 110 0 110 0 0 74 c0 87 6 82 -127 81 l-93 -2 0 89 0 88
-115 0 -115 0 0 -90z"/>
<path d="M4285 5315 c-88 -16 -161 -52 -207 -103 -47 -52 -61 -98 -56 -187 7
-139 70 -190 311 -250 159 -40 194 -56 203 -90 8 -31 -17 -72 -52 -85 -38 -15
-172 -12 -239 5 -33 8 -87 29 -119 45 -33 17 -60 29 -61 28 -2 -2 -17 -37 -34
-78 -18 -41 -35 -80 -38 -87 -6 -15 71 -54 167 -85 63 -19 96 -23 210 -23 118
0 143 3 197 24 73 27 145 87 173 142 26 51 27 158 1 214 -38 85 -109 123 -329
177 -141 35 -172 54 -172 104 0 32 4 37 47 56 62 28 178 21 278 -17 39 -14 73
-27 78 -28 11 -3 77 167 68 176 -16 16 -151 56 -226 66 -92 13 -110 13 -200
-4z"/>
<path d="M6155 5286 c-59 -19 -101 -43 -146 -83 l-39 -35 0 61 0 61 -110 0
-110 0 0 -440 0 -440 119 0 120 0 3 269 3 269 30 44 c45 64 102 90 190 86 55
-2 78 -8 104 -27 61 -44 65 -65 69 -369 l3 -273 115 3 115 3 5 242 c2 133 0
281 -6 330 -18 161 -89 260 -214 298 -60 18 -195 19 -251 1z"/>
<path d="M7656 5284 c-134 -32 -241 -119 -298 -241 -27 -57 -32 -81 -36 -168
-8 -186 55 -316 197 -407 100 -63 269 -88 395 -59 161 38 291 161 331 316 41
158 -6 346 -112 447 -113 107 -307 153 -477 112z m207 -195 c48 -13 102 -60
130 -113 33 -62 31 -193 -3 -260 -68 -133 -253 -163 -359 -57 -86 86 -95 246
-20 355 49 72 152 103 252 75z"/>
<path d="M8575 5286 c-99 -31 -170 -88 -199 -158 -20 -48 -20 -148 0 -196 36
-87 96 -121 299 -172 153 -38 182 -51 191 -87 27 -107 -209 -126 -398 -33 -34
17 -62 29 -63 28 -1 -2 -18 -40 -37 -85 -40 -94 -42 -89 47 -128 161 -72 396
-81 517 -19 108 55 161 131 161 234 0 154 -77 214 -348 275 -117 26 -152 42
-164 77 -16 46 5 73 69 88 76 18 196 1 288 -42 23 -11 44 -19 46 -17 2 2 20
42 40 89 l35 85 -51 23 c-28 13 -78 29 -112 37 -75 18 -266 18 -321 1z"/>
<path d="M5055 5271 c-61 -17 -225 -90 -225 -99 0 -5 79 -153 86 -160 1 -2 37
13 79 34 69 34 87 39 171 42 80 4 99 1 138 -17 48 -24 76 -67 76 -119 l0 -30
-187 -4 c-170 -3 -193 -6 -238 -26 -104 -48 -149 -117 -149 -232 0 -83 20
-134 71 -181 119 -111 362 -117 486 -13 l32 27 3 -41 3 -42 105 0 104 0 0 302
c0 370 -4 393 -90 480 -47 46 -68 60 -124 77 -87 27 -252 28 -341 2z m248
-497 l77 -7 0 -46 c0 -93 -81 -161 -193 -161 -100 0 -157 42 -157 115 0 56 33
84 110 96 66 9 79 10 163 3z"/>
<path d="M5665 4081 c-10 -17 15 -53 33 -49 26 5 22 52 -5 56 -11 2 -24 -2
-28 -7z"/>
<path d="M4400 3964 l0 -116 28 5 c15 2 36 1 47 -3 26 -9 73 7 85 30 18 35 12
85 -15 110 -20 19 -32 22 -65 17 l-40 -5 0 39 c0 32 -3 39 -20 39 -19 0 -20
-7 -20 -116z m120 -9 c7 -8 10 -25 6 -40 -5 -19 -13 -25 -35 -25 -39 0 -57 23
-43 55 13 29 52 34 72 10z"/>
<path d="M5740 3965 c0 -108 1 -115 20 -115 19 0 20 7 20 115 0 108 -1 115
-20 115 -19 0 -20 -7 -20 -115z"/>
<path d="M6747 4073 c-2 -5 -3 -55 -2 -113 1 -100 3 -105 23 -108 22 -3 22 -1
22 112 0 108 -1 116 -19 116 -11 0 -22 -3 -24 -7z"/>
<path d="M8190 3966 l0 -116 25 0 c23 0 25 3 23 51 -1 55 9 73 38 67 16 -3 20
-14 22 -61 3 -54 4 -57 29 -57 25 0 25 1 21 66 -5 78 -22 98 -78 91 -34 -4
-35 -4 -35 32 0 30 -4 37 -22 39 -23 3 -23 2 -23 -112z"/>
<path d="M8660 3965 c0 -108 1 -115 20 -115 19 0 20 7 20 115 0 108 -1 115
-20 115 -19 0 -20 -7 -20 -115z"/>
<path d="M4020 3960 l0 -110 25 0 c21 0 25 5 25 30 0 23 5 30 19 30 11 0 29
-13 41 -30 14 -19 30 -30 46 -30 29 0 30 4 3 41 -19 27 -20 32 -6 47 25 28 29
59 13 90 -19 37 -33 42 -107 42 l-59 0 0 -110z m118 58 c20 -20 14 -48 -14
-58 -46 -18 -54 -13 -54 30 0 37 2 40 28 40 15 0 33 -5 40 -12z"/>
<path d="M5290 3960 l0 -110 26 0 c23 0 26 3 21 25 -3 18 1 29 14 35 14 8 23
3 45 -25 17 -23 35 -35 50 -35 29 0 30 4 3 41 -19 28 -20 31 -5 54 9 13 16 40
16 59 0 49 -28 66 -107 66 l-63 0 0 -110z m114 57 c25 -18 17 -50 -15 -61 -41
-14 -56 -3 -51 38 3 29 8 36 26 36 12 0 30 -6 40 -13z"/>
<path d="M6040 3960 l0 -110 63 0 c73 1 104 15 128 61 18 33 18 33 19 8 0 -14
10 -35 23 -47 37 -35 127 -27 127 11 0 5 -15 7 -34 4 -22 -3 -41 0 -53 8 -16
13 -12 14 40 15 56 0 57 1 57 28 0 69 -88 96 -141 43 l-29 -29 0 25 c0 15 -13
38 -34 59 -32 32 -38 34 -100 34 l-66 0 0 -110z m137 47 c20 -20 19 -74 -2
-97 -12 -13 -31 -20 -57 -20 l-38 0 0 71 0 72 41 -6 c23 -3 48 -12 56 -20z
m179 -44 c17 -17 17 -18 -4 -21 -12 -2 -32 -2 -44 0 -21 3 -21 4 -4 21 10 9
21 17 26 17 5 0 16 -8 26 -17z"/>
<path d="M7702 4053 c2 -12 14 -19 36 -21 l32 -3 0 -90 c0 -88 0 -89 25 -89
25 0 25 1 25 89 l0 90 32 3 c22 2 34 9 36 21 3 15 -7 17 -93 17 -86 0 -96 -2
-93 -17z"/>
<path d="M8460 3960 l0 -110 73 0 c59 0 77 4 90 18 22 24 22 68 0 81 -15 8
-16 12 -5 22 18 19 15 63 -6 82 -13 12 -37 17 -85 17 l-67 0 0 -110z m118 43
c3 -21 -1 -23 -37 -23 -37 0 -41 2 -41 26 0 23 3 25 38 22 30 -2 38 -7 40 -25z
m10 -90 c3 -20 -1 -23 -32 -23 -20 0 -39 -1 -42 -2 -4 -2 -8 10 -10 25 -3 27
-1 28 39 25 35 -2 43 -7 45 -25z"/>
<path d="M5106 4012 c-3 -3 -25 -6 -48 -6 -28 -1 -43 -5 -42 -13 1 -7 2 -42 3
-78 1 -57 3 -65 20 -65 17 0 20 8 23 51 3 55 21 78 52 66 12 -5 16 -20 16 -62
0 -53 1 -55 26 -55 27 0 27 0 22 65 -3 36 -11 71 -17 79 -13 15 -47 27 -55 18z"/>
<path d="M7436 4013 c-4 -4 -22 -6 -41 -5 l-35 3 0 -81 c0 -79 0 -80 25 -80
24 0 25 3 25 55 0 50 2 56 25 65 14 5 25 16 25 24 0 17 -14 28 -24 19z"/>
<path d="M8945 4008 c-49 -28 -61 -92 -24 -129 18 -18 29 -20 65 -15 43 5 44
5 33 -15 -9 -18 -17 -21 -55 -15 -49 6 -68 -9 -39 -31 30 -21 101 -17 125 9
17 18 20 35 20 110 l0 88 -32 -2 c-18 -1 -42 1 -53 5 -11 3 -29 1 -40 -5z m75
-57 c16 -31 2 -53 -33 -49 -38 4 -56 30 -38 52 18 22 58 20 71 -3z"/>
<path d="M4217 4003 c-10 -10 -8 -88 3 -117 13 -35 50 -52 79 -36 17 9 26 9
36 0 26 -21 35 0 35 81 0 77 -1 79 -25 79 -22 0 -24 -4 -27 -57 -3 -54 -5 -58
-28 -58 -23 0 -25 4 -28 58 -2 47 -6 57 -21 57 -10 0 -21 -3 -24 -7z"/>
<path d="M4570 4003 c0 -5 13 -40 29 -77 31 -73 31 -96 1 -96 -29 0 -33 -29
-6 -41 47 -22 58 -6 143 209 3 7 -4 12 -19 12 -19 0 -27 -9 -41 -51 -20 -56
-25 -56 -48 4 -11 28 -23 43 -38 45 -11 2 -21 0 -21 -5z"/>
<path d="M4846 3979 c-30 -35 -32 -49 -11 -89 21 -40 73 -57 115 -35 82 42 52
155 -41 155 -29 0 -43 -7 -63 -31z m102 -47 c3 -26 -1 -34 -20 -41 -31 -11
-47 -4 -54 25 -8 32 13 56 45 52 21 -2 27 -9 29 -36z"/>
<path d="M5498 3990 c-49 -39 -19 -140 42 -140 14 0 44 0 68 0 l42 0 0 79 0
79 -65 0 c-48 0 -70 -4 -87 -18z m100 -57 c2 -24 -2 -34 -17 -43 -28 -15 -61
3 -61 33 0 31 20 48 50 45 20 -2 26 -9 28 -35z"/>
<path d="M5670 3930 c0 -73 2 -80 20 -80 18 0 20 7 20 80 0 73 -2 80 -20 80
-18 0 -20 -7 -20 -80z"/>
<path d="M5815 3986 c-22 -33 -7 -60 40 -76 46 -15 36 -30 -15 -23 -31 4 -40
2 -40 -10 0 -29 98 -38 124 -11 9 8 16 20 16 25 0 14 -38 49 -54 49 -7 0 -19
7 -26 15 -13 16 -15 15 40 18 15 1 25 8 25 17 0 11 -13 16 -47 18 -41 3 -49 0
-63 -22z"/>
<path d="M6400 4006 c0 -4 4 -14 10 -24 5 -9 21 -43 34 -74 21 -48 29 -58 49
-58 15 0 27 7 30 18 3 9 16 45 30 80 l26 62 -23 0 c-17 0 -26 -10 -40 -51 -20
-55 -28 -54 -49 6 -11 31 -20 41 -40 43 -15 2 -27 1 -27 -2z"/>
<path d="M6591 3984 c-28 -36 -27 -85 2 -112 37 -35 127 -27 127 11 0 5 -12 8
-27 7 -50 -4 -73 0 -73 10 0 6 25 10 55 10 54 0 55 1 55 28 0 67 -98 99 -139
46z m85 -18 c26 -19 14 -28 -32 -24 -36 3 -37 4 -20 21 21 21 27 21 52 3z"/>
<path d="M6832 3987 c-30 -31 -30 -89 0 -117 51 -47 148 -11 148 56 0 75 -98
115 -148 61z m100 -42 c14 -32 -4 -55 -43 -55 -22 0 -30 6 -35 25 -13 52 56
79 78 30z"/>
<path d="M7000 3893 c0 -113 0 -114 23 -111 14 2 23 10 23 23 1 11 2 27 3 35
1 12 10 15 35 12 43 -5 74 12 82 43 l6 25 22 -33 c18 -27 29 -32 67 -35 32 -2
50 2 59 13 19 23 0 38 -32 26 -19 -7 -31 -6 -44 4 -17 13 -13 14 39 15 56 0
57 1 57 28 0 65 -87 96 -135 47 -14 -13 -25 -29 -25 -36 0 -7 -10 3 -23 22
-22 33 -25 34 -90 35 l-67 2 0 -115z m122 52 c15 -34 -5 -57 -46 -53 -24 2
-32 9 -34 26 -8 51 58 74 80 27z m176 8 c2 -9 -8 -13 -32 -13 -26 0 -36 4 -36
16 0 19 61 16 68 -3z"/>
<path d="M7875 3985 c-33 -32 -34 -86 -3 -115 34 -31 128 -26 128 7 0 10 -9
14 -27 13 -50 -4 -73 0 -73 10 0 6 25 10 56 10 49 0 58 -3 81 -30 19 -23 33
-30 62 -30 46 0 82 23 64 41 -10 10 -18 10 -38 1 -21 -10 -28 -9 -45 8 -37 37
-14 77 38 67 15 -3 34 -1 42 4 23 15 -15 39 -61 39 -29 0 -42 -6 -58 -26 -12
-15 -21 -34 -21 -43 -1 -9 -8 0 -16 19 -18 42 -29 50 -72 50 -22 0 -41 -8 -57
-25z m95 -35 c0 -6 -18 -10 -40 -10 -44 0 -53 16 -17 29 23 9 57 -2 57 -19z"/>
<path d="M8745 3988 c-35 -30 -37 -79 -5 -113 51 -54 150 -17 150 55 0 70 -89
105 -145 58z m93 -53 c6 -53 -61 -71 -74 -19 -8 32 13 56 45 52 20 -2 27 -9
29 -33z"/>
<path d="M7540 3951 c0 -18 6 -21 46 -21 38 0 45 3 42 18 -2 12 -15 18 -46 20
-37 3 -42 1 -42 -17z"/>
</g>
</svg>
